<svg xmlns="http://www.w3.org/2000/svg" xmlns:xlink="http://www.w3.org/1999/xlink" viewBox="0 0 23 66"><defs><style>.cls-1,.cls-5{stroke:#fff;stroke-miterlimit:10;}.cls-1{fill:url(#未命名的渐变_55);}.cls-2{opacity:0.02;}.cls-3{opacity:0.08;}.cls-4{opacity:0.04;}.cls-5{fill:none;stroke-width:0.5px;}</style><linearGradient id="未命名的渐变_55" x1="0.5" y1="33" x2="22.5" y2="33" gradientUnits="userSpaceOnUse"><stop offset="0" stop-color="#5d86de"/><stop offset="0.3" stop-color="#65cdff"/><stop offset="0.7" stop-color="#65cdff"/><stop offset="1" stop-color="#5d86de"/></linearGradient></defs><title>资源 3Hold</title><g id="图层_2" data-name="图层 2"><g id="图层_1-2" data-name="图层 1"><rect class="cls-1" x="0.5" y="0.5" width="22" height="65"/><rect class="cls-2" x="9" y="1" width="5" height="64"/><rect class="cls-3" x="10" y="1" width="1" height="64"/><rect class="cls-3" x="10.31" y="1" width="0.38" height="64" transform="translate(21 66) rotate(180)"/><rect class="cls-3" x="12.3" y="1.03" width="0.38" height="64" transform="translate(24.97 66.06) rotate(180)"/><rect class="cls-3" x="12" y="1" width="1" height="64"/><rect class="cls-4" x="1" y="1" width="21" height="4"/><rect class="cls-4" x="1" y="6" width="21" height="4"/><rect class="cls-4" x="1" y="11" width="21" height="4"/><rect class="cls-4" x="1" y="16" width="21" height="4"/><rect class="cls-4" x="1" y="21" width="21" height="4"/><rect class="cls-4" x="1" y="26" width="21" height="4"/><rect class="cls-4" x="1" y="31" width="21" height="4"/><rect class="cls-4" x="1" y="36" width="21" height="4"/><rect class="cls-4" x="1" y="41" width="21" height="4"/><rect class="cls-4" x="1" y="46" width="21" height="4"/><rect class="cls-4" x="1" y="51" width="21" height="4"/><rect class="cls-4" x="1" y="56" width="21" height="4"/><rect class="cls-4" x="1" y="61" width="21" height="4"/><rect class="cls-5" x="2.5" y="0.5" width="18" height="65"/></g></g></svg>